<svg width="51" height="42" viewBox="0 0 51 42" fill="none" xmlns="http://www.w3.org/2000/svg">
<path d="M26.7509 23.8403H27.2019L27.5799 24.3377L27.6794 24.4703L28.2431 25.2197H27.7921L27.4207 24.7223L27.3279 24.5963L26.7509 23.8403ZM28.3823 23.2037C28.3823 23.5618 28.3177 23.8712 28.1883 24.1321C28.059 24.3929 27.8816 24.5941 27.6562 24.7356C27.4307 24.8771 27.1731 24.9478 26.8836 24.9478C26.594 24.9478 26.3365 24.8771 26.111 24.7356C25.8855 24.5941 25.7081 24.3929 25.5788 24.1321C25.4495 23.8712 25.3848 23.5618 25.3848 23.2037C25.3848 22.8456 25.4495 22.5361 25.5788 22.2752C25.7081 22.0144 25.8855 21.8132 26.111 21.6717C26.3365 21.5303 26.594 21.4595 26.8836 21.4595C27.1731 21.4595 27.4307 21.5303 27.6562 21.6717C27.8816 21.8132 28.059 22.0144 28.1883 22.2752C28.3177 22.5361 28.3823 22.8456 28.3823 23.2037ZM27.9844 23.2037C27.9844 22.9097 27.9352 22.6615 27.8369 22.4593C27.7396 22.257 27.6075 22.1039 27.4406 22C27.2748 21.8961 27.0891 21.8442 26.8836 21.8442C26.678 21.8442 26.4917 21.8961 26.3248 22C26.1591 22.1039 26.027 22.257 25.9286 22.4593C25.8313 22.6615 25.7827 22.9097 25.7827 23.2037C25.7827 23.4977 25.8313 23.7458 25.9286 23.9481C26.027 24.1503 26.1591 24.3034 26.3248 24.4073C26.4917 24.5112 26.678 24.5632 26.8836 24.5632C27.0891 24.5632 27.2748 24.5112 27.4406 24.4073C27.6075 24.3034 27.7396 24.1503 27.8369 23.9481C27.9352 23.7458 27.9844 23.4977 27.9844 23.2037ZM31.3019 21.506H31.7131V23.7541C31.7131 23.9862 31.6584 24.1934 31.5489 24.3758C31.4406 24.5571 31.2875 24.7002 31.0897 24.8052C30.8918 24.9091 30.6597 24.9611 30.3934 24.9611C30.127 24.9611 29.8949 24.9091 29.697 24.8052C29.4992 24.7002 29.3456 24.5571 29.2361 24.3758C29.1278 24.1934 29.0737 23.9862 29.0737 23.7541V21.506H29.4848V23.7209C29.4848 23.8867 29.5213 24.0343 29.5943 24.1636C29.6672 24.2918 29.7711 24.3929 29.9059 24.467C30.0419 24.5399 30.2044 24.5764 30.3934 24.5764C30.5824 24.5764 30.7448 24.5399 30.8808 24.467C31.0167 24.3929 31.1206 24.2918 31.1925 24.1636C31.2654 24.0343 31.3019 23.8867 31.3019 23.7209V21.506ZM32.5342 24.9014V21.506H34.5833V21.8707H32.9453V23.018H34.4772V23.3827H32.9453V24.5366H34.6099V24.9014H32.5342ZM37.1813 22.3548C37.1614 22.1868 37.0807 22.0564 36.9392 21.9635C36.7978 21.8707 36.6242 21.8243 36.4186 21.8243C36.2683 21.8243 36.1368 21.8486 36.0241 21.8972C35.9124 21.9459 35.8251 22.0127 35.7621 22.0978C35.7002 22.1829 35.6693 22.2797 35.6693 22.388C35.6693 22.4786 35.6908 22.5565 35.7339 22.6217C35.7781 22.6858 35.8345 22.7394 35.903 22.7826C35.9716 22.8246 36.0434 22.8594 36.1186 22.887C36.1937 22.9135 36.2628 22.9351 36.3258 22.9517L36.6707 23.0445C36.7591 23.0677 36.8574 23.0998 36.9658 23.1407C37.0752 23.1816 37.1796 23.2374 37.2791 23.3081C37.3797 23.3777 37.4626 23.4673 37.5278 23.5767C37.593 23.6861 37.6256 23.8204 37.6256 23.9796C37.6256 24.163 37.5775 24.3288 37.4814 24.4769C37.3863 24.625 37.2471 24.7428 37.0636 24.8301C36.8812 24.9174 36.6596 24.9611 36.3988 24.9611C36.1556 24.9611 35.945 24.9218 35.7671 24.8433C35.5902 24.7649 35.451 24.6554 35.3493 24.5151C35.2487 24.3747 35.1918 24.2117 35.1785 24.026H35.603C35.614 24.1542 35.6571 24.2603 35.7323 24.3443C35.8085 24.4272 35.9047 24.4891 36.0207 24.53C36.1379 24.5698 36.2639 24.5897 36.3988 24.5897C36.5557 24.5897 36.6966 24.5643 36.8215 24.5134C36.9464 24.4615 37.0453 24.3896 37.1183 24.2979C37.1912 24.205 37.2277 24.0967 37.2277 23.9729C37.2277 23.8602 37.1962 23.7685 37.1332 23.6977C37.0702 23.627 36.9873 23.5695 36.8845 23.5253C36.7817 23.4811 36.6707 23.4424 36.5513 23.4092L36.1335 23.2899C35.8682 23.2136 35.6582 23.1047 35.5035 22.9633C35.3487 22.8218 35.2714 22.6367 35.2714 22.4079C35.2714 22.2178 35.3228 22.052 35.4256 21.9105C35.5295 21.7679 35.6687 21.6574 35.8434 21.5789C36.0191 21.4993 36.2153 21.4595 36.4319 21.4595C36.6508 21.4595 36.8453 21.4988 37.0155 21.5772C37.1857 21.6546 37.3206 21.7607 37.42 21.8956C37.5206 22.0304 37.5737 22.1835 37.5792 22.3548H37.1813ZM38.1159 21.8707V21.506H40.6625V21.8707H39.5948V24.9014H39.1836V21.8707H38.1159ZM41.7082 21.506V24.9014H41.2971V21.506H41.7082ZM45.3975 23.2037C45.3975 23.5618 45.3328 23.8712 45.2035 24.1321C45.0742 24.3929 44.8968 24.5941 44.6713 24.7356C44.4459 24.8771 44.1883 24.9478 43.8987 24.9478C43.6092 24.9478 43.3516 24.8771 43.1262 24.7356C42.9007 24.5941 42.7233 24.3929 42.594 24.1321C42.4646 23.8712 42.4 23.5618 42.4 23.2037C42.4 22.8456 42.4646 22.5361 42.594 22.2752C42.7233 22.0144 42.9007 21.8132 43.1262 21.6717C43.3516 21.5303 43.6092 21.4595 43.8987 21.4595C44.1883 21.4595 44.4459 21.5303 44.6713 21.6717C44.8968 21.8132 45.0742 22.0144 45.2035 22.2752C45.3328 22.5361 45.3975 22.8456 45.3975 23.2037ZM44.9996 23.2037C44.9996 22.9097 44.9504 22.6615 44.852 22.4593C44.7548 22.257 44.6227 22.1039 44.4558 22C44.29 21.8961 44.1043 21.8442 43.8987 21.8442C43.6932 21.8442 43.5069 21.8961 43.34 22C43.1742 22.1039 43.0422 22.257 42.9438 22.4593C42.8465 22.6615 42.7979 22.9097 42.7979 23.2037C42.7979 23.4977 42.8465 23.7458 42.9438 23.9481C43.0422 24.1503 43.1742 24.3034 43.34 24.4073C43.5069 24.5112 43.6932 24.5632 43.8987 24.5632C44.1043 24.5632 44.29 24.5112 44.4558 24.4073C44.6227 24.3034 44.7548 24.1503 44.852 23.9481C44.9504 23.7458 44.9996 23.4977 44.9996 23.2037ZM48.7813 21.506V24.9014H48.3834L46.5332 22.2354H46.5V24.9014H46.0888V21.506H46.4867L48.3436 24.1785H48.3768V21.506H48.7813Z" fill="#414142"/>
<path d="M21.1968 35.0663H22.5545L23.6925 36.5637L23.9919 36.963L25.689 39.2191H24.3313L23.2133 37.7217L22.9338 37.3424L21.1968 35.0663ZM26.1082 33.1497C26.1082 34.2278 25.9136 35.1595 25.5242 35.9448C25.1349 36.7301 24.6009 37.3357 23.9221 37.7616C23.2432 38.1875 22.4679 38.4005 21.5961 38.4005C20.7243 38.4005 19.949 38.1875 19.2702 37.7616C18.5914 37.3357 18.0573 36.7301 17.668 35.9448C17.2787 35.1595 17.084 34.2278 17.084 33.1497C17.084 32.0716 17.2787 31.1399 17.668 30.3546C18.0573 29.5693 18.5914 28.9637 19.2702 28.5378C19.949 28.1119 20.7243 27.8989 21.5961 27.8989C22.4679 27.8989 23.2432 28.1119 23.9221 28.5378C24.6009 28.9637 25.1349 29.5693 25.5242 30.3546C25.9136 31.1399 26.1082 32.0716 26.1082 33.1497ZM24.9103 33.1497C24.9103 32.2646 24.7622 31.5176 24.4661 30.9086C24.1733 30.2997 23.7756 29.8388 23.2732 29.5261C22.7741 29.2133 22.215 29.0569 21.5961 29.0569C20.9772 29.0569 20.4165 29.2133 19.9141 29.5261C19.415 29.8388 19.0173 30.2997 18.7212 30.9086C18.4284 31.5176 18.2819 32.2646 18.2819 33.1497C18.2819 34.0348 18.4284 34.7818 18.7212 35.3908C19.0173 35.9997 19.415 36.4606 19.9141 36.7734C20.4165 37.0861 20.9772 37.2425 21.5961 37.2425C22.215 37.2425 22.7741 37.0861 23.2732 36.7734C23.7756 36.4606 24.1733 35.9997 24.4661 35.3908C24.7622 34.7818 24.9103 34.0348 24.9103 33.1497ZM34.8978 28.0387H36.1356V34.8068C36.1356 35.5056 35.9709 36.1295 35.6415 36.6785C35.3154 37.2242 34.8545 37.6551 34.2589 37.9712C33.6633 38.284 32.9645 38.4404 32.1626 38.4404C31.3607 38.4404 30.6619 38.284 30.0663 37.9712C29.4707 37.6551 29.0081 37.2242 28.6787 36.6785C28.3526 36.1295 28.1896 35.5056 28.1896 34.8068V28.0387H29.4274V34.707C29.4274 35.2061 29.5372 35.6503 29.7568 36.0396C29.9764 36.4256 30.2892 36.7301 30.6952 36.953C31.1045 37.1727 31.5936 37.2825 32.1626 37.2825C32.7316 37.2825 33.2207 37.1727 33.63 36.953C34.0393 36.7301 34.3521 36.4256 34.5684 36.0396C34.788 35.6503 34.8978 35.2061 34.8978 34.707V28.0387ZM39.8454 28.0387V38.2607H38.6075V28.0387H39.8454ZM41.9879 38.2607V37.3623L47.4982 29.1367H41.928V28.0387H48.9756V28.9371L43.4653 37.1627H49.0355V38.2607H41.9879Z" fill="#414142"/>
<mask id="mask0_153_14" style="mask-type:alpha" maskUnits="userSpaceOnUse" x="0" y="0" width="30" height="40">
<path d="M17.647 16.6152C25.3659 17.332 29.2805 21.6876 29.2805 27.6422C29.2805 34.1481 24.4838 39.4411 14.6697 39.4411C9.15619 39.4411 3.75296 37.6768 0.5 34.7546L3.03621 30.3989C5.62755 32.8249 9.92808 34.5341 14.6697 34.5341C20.4589 34.5341 23.767 31.8876 23.767 27.6973C23.767 23.6173 20.8449 20.9709 14.2287 20.9709H11.1411V17.1114L20.8449 5.20226H2.26432V0.405518H27.7367V4.1547L17.647 16.6152Z" fill="black"/>
</mask>
<g mask="url(#mask0_153_14)">
<path d="M6.89237 39.5209L28.5526 13.4302V-5.76855H-8.12207V39.5209H6.89237Z" fill="#CA0123"/>
</g>
<path d="M28.5518 13.4307L6.8916 39.5213" stroke="#414142" stroke-width="0.492277"/>
</svg>
