<svg width="567" height="53" viewBox="0 0 567 53" fill="none" xmlns="http://www.w3.org/2000/svg">
<rect x="29" y="22" width="511" height="8" fill="#D9D9D9"/>
<circle cx="26.5" cy="26.5" r="26.5" fill="#CA0123"/>
<circle cx="284.5" cy="26.5" r="26.5" fill="#D9D9D9"/>
<circle cx="540.5" cy="26.5" r="26.5" fill="#D9D9D9"/>
<path d="M21.7875 20.3458V15.7083H29.8667V37H24.675V20.3458H21.7875Z" fill="white"/>
<path d="M277.138 32.0042C277.799 31.4792 278.1 31.2361 278.042 31.275C279.947 29.7 281.444 28.4069 282.533 27.3958C283.642 26.3847 284.575 25.325 285.333 24.2167C286.092 23.1083 286.471 22.0292 286.471 20.9792C286.471 20.1819 286.286 19.5597 285.917 19.1125C285.547 18.6653 284.993 18.4417 284.254 18.4417C283.515 18.4417 282.932 18.7236 282.504 19.2875C282.096 19.8319 281.892 20.6097 281.892 21.6208H277.079C277.118 19.9681 277.468 18.5875 278.129 17.4792C278.81 16.3708 279.694 15.5542 280.783 15.0292C281.892 14.5042 283.117 14.2417 284.458 14.2417C286.772 14.2417 288.513 14.8347 289.679 16.0208C290.865 17.2069 291.458 18.7528 291.458 20.6583C291.458 22.7389 290.749 24.6736 289.329 26.4625C287.91 28.2319 286.101 29.9625 283.904 31.6542H291.779V35.7083H277.138V32.0042Z" fill="white"/>
<path d="M533.488 20.7167C533.565 18.6361 534.246 17.0319 535.529 15.9042C536.813 14.7764 538.553 14.2125 540.75 14.2125C542.208 14.2125 543.453 14.4653 544.483 14.9708C545.533 15.4764 546.321 16.1667 546.846 17.0417C547.39 17.9167 547.663 18.8986 547.663 19.9875C547.663 21.2708 547.342 22.3208 546.7 23.1375C546.058 23.9347 545.31 24.4792 544.454 24.7708V24.8875C545.563 25.2569 546.438 25.8694 547.079 26.725C547.721 27.5806 548.042 28.6792 548.042 30.0208C548.042 31.2264 547.76 32.2958 547.196 33.2292C546.651 34.1431 545.844 34.8625 544.775 35.3875C543.725 35.9125 542.471 36.175 541.013 36.175C538.679 36.175 536.813 35.6014 535.413 34.4542C534.032 33.3069 533.303 31.5764 533.225 29.2625H538.067C538.086 30.1181 538.329 30.7986 538.796 31.3042C539.263 31.7903 539.943 32.0333 540.838 32.0333C541.596 32.0333 542.179 31.8194 542.588 31.3917C543.015 30.9444 543.229 30.3611 543.229 29.6417C543.229 28.7083 542.928 28.0375 542.325 27.6292C541.742 27.2014 540.799 26.9875 539.496 26.9875H538.563V22.9333H539.496C540.488 22.9333 541.285 22.7681 541.888 22.4375C542.51 22.0875 542.821 21.475 542.821 20.6C542.821 19.9 542.626 19.3556 542.238 18.9667C541.849 18.5778 541.314 18.3833 540.633 18.3833C539.894 18.3833 539.34 18.6069 538.971 19.0542C538.621 19.5014 538.417 20.0556 538.358 20.7167H533.488Z" fill="white"/>
</svg>
